{
	"asset":{
		"generator":"Khronos glTF Blender I/O v4.4.56",
		"version":"2.0"
	},
	"scene":0,
	"scenes":[
		{
			"name":"Scene",
			"nodes":[
				13
			]
		}
	],
	"nodes":[
		{
			"mesh":0,
			"name":"Node10"
		},
		{
			"mesh":1,
			"name":"Node11"
		},
		{
			"mesh":2,
			"name":"Node12"
		},
		{
			"mesh":3,
			"name":"Node13"
		},
		{
			"mesh":4,
			"name":"Node14"
		},
		{
			"mesh":5,
			"name":"Node2"
		},
		{
			"mesh":6,
			"name":"Node3"
		},
		{
			"mesh":7,
			"name":"Node4"
		},
		{
			"mesh":8,
			"name":"Node5"
		},
		{
			"mesh":9,
			"name":"Node6"
		},
		{
			"mesh":10,
			"name":"Node7"
		},
		{
			"mesh":11,
			"name":"Node8"
		},
		{
			"mesh":12,
			"name":"Node9"
		},
		{
			"children":[
				0,
				1,
				2,
				3,
				4,
				5,
				6,
				7,
				8,
				9,
				10,
				11,
				12
			],
			"mesh":13,
			"name":"Node1",
			"rotation":[
				-0.7071068286895752,
				0,
				0,
				0.7071068286895752
			]
		}
	],
	"materials":[
		{
			"doubleSided":true,
			"name":"FF0871E8",
			"pbrMetallicRoughness":{
				"baseColorFactor":[
					0.9098039269447327,
					0.4431372582912445,
					0.0313725508749485,
					1
				],
				"metallicFactor":0.05000000074505806,
				"roughnessFactor":0.5
			}
		},
		{
			"doubleSided":true,
			"name":"FF1A1A1A",
			"pbrMetallicRoughness":{
				"baseColorFactor":[
					0.10196078568696976,
					0.10196078568696976,
					0.10196078568696976,
					1
				],
				"metallicFactor":0.05000000074505806,
				"roughnessFactor":0.5
			}
		},
		{
			"doubleSided":true,
			"name":"FF008080",
			"pbrMetallicRoughness":{
				"baseColorFactor":[
					0.501960813999176,
					0.501960813999176,
					0,
					1
				],
				"metallicFactor":0.05000000074505806,
				"roughnessFactor":0.5
			}
		},
		{
			"doubleSided":true,
			"name":"FFFFFFFF",
			"pbrMetallicRoughness":{
				"metallicFactor":0.05000000074505806,
				"roughnessFactor":0.5
			}
		},
		{
			"doubleSided":true,
			"name":"FF008000",
			"pbrMetallicRoughness":{
				"baseColorFactor":[
					0,
					0.501960813999176,
					0,
					1
				],
				"metallicFactor":0.05000000074505806,
				"roughnessFactor":0.5
			}
		},
		{
			"doubleSided":true,
			"name":"FF000000",
			"pbrMetallicRoughness":{
				"baseColorFactor":[
					0,
					0,
					0,
					1
				],
				"metallicFactor":0.05000000074505806,
				"roughnessFactor":0.5
			}
		},
		{
			"doubleSided":true,
			"name":"FF3F3F3F",
			"pbrMetallicRoughness":{
				"baseColorFactor":[
					0.24705882370471954,
					0.24705882370471954,
					0.24705882370471954,
					1
				],
				"metallicFactor":0.05000000074505806,
				"roughnessFactor":0.5
			}
		},
		{
			"doubleSided":true,
			"name":"FFC0C0C0",
			"pbrMetallicRoughness":{
				"baseColorFactor":[
					0.7529411911964417,
					0.7529411911964417,
					0.7529411911964417,
					1
				],
				"metallicFactor":0.05000000074505806,
				"roughnessFactor":0.5
			}
		},
		{
			"doubleSided":true,
			"name":"FFC0FFFF",
			"pbrMetallicRoughness":{
				"baseColorFactor":[
					1,
					1,
					0.7529411911964417,
					1
				],
				"metallicFactor":0.05000000074505806,
				"roughnessFactor":0.5
			}
		}
	],
	"meshes":[
		{
			"name":"Mesh0.009",
			"primitives":[
				{
					"attributes":{
						"POSITION":0,
						"NORMAL":1
					},
					"indices":2,
					"material":0
				}
			]
		},
		{
			"name":"Mesh0.010",
			"primitives":[
				{
					"attributes":{
						"POSITION":3,
						"NORMAL":4
					},
					"indices":5,
					"material":1
				}
			]
		},
		{
			"name":"Mesh0.011",
			"primitives":[
				{
					"attributes":{
						"POSITION":6,
						"NORMAL":7
					},
					"indices":8,
					"material":2
				}
			]
		},
		{
			"name":"Mesh0.012",
			"primitives":[
				{
					"attributes":{
						"POSITION":9,
						"NORMAL":10
					},
					"indices":11,
					"material":3
				}
			]
		},
		{
			"name":"Mesh0.013",
			"primitives":[
				{
					"attributes":{
						"POSITION":12,
						"NORMAL":13
					},
					"indices":14,
					"material":4
				}
			]
		},
		{
			"name":"Mesh0.001",
			"primitives":[
				{
					"attributes":{
						"POSITION":15,
						"NORMAL":16
					},
					"indices":17,
					"material":0
				}
			]
		},
		{
			"name":"Mesh0.002",
			"primitives":[
				{
					"attributes":{
						"POSITION":18,
						"NORMAL":19
					},
					"indices":20,
					"material":0
				}
			]
		},
		{
			"name":"Mesh0.003",
			"primitives":[
				{
					"attributes":{
						"POSITION":21,
						"NORMAL":22
					},
					"indices":23,
					"material":0
				}
			]
		},
		{
			"name":"Mesh0.004",
			"primitives":[
				{
					"attributes":{
						"POSITION":24,
						"NORMAL":25
					},
					"indices":26,
					"material":5
				}
			]
		},
		{
			"name":"Mesh0.005",
			"primitives":[
				{
					"attributes":{
						"POSITION":27,
						"NORMAL":28
					},
					"indices":29,
					"material":6
				}
			]
		},
		{
			"name":"Mesh0.006",
			"primitives":[
				{
					"attributes":{
						"POSITION":30,
						"NORMAL":31
					},
					"indices":32,
					"material":5
				}
			]
		},
		{
			"name":"Mesh0.007",
			"primitives":[
				{
					"attributes":{
						"POSITION":33,
						"NORMAL":34
					},
					"indices":35,
					"material":7
				}
			]
		},
		{
			"name":"Mesh0.008",
			"primitives":[
				{
					"attributes":{
						"POSITION":36,
						"NORMAL":37
					},
					"indices":38,
					"material":8
				}
			]
		},
		{
			"name":"Mesh0",
			"primitives":[
				{
					"attributes":{
						"POSITION":39,
						"NORMAL":40
					},
					"indices":41,
					"material":5
				}
			]
		}
	],
	"accessors":[
		{
			"bufferView":0,
			"componentType":5126,
			"count":4629,
			"max":[
				13.500171661376953,
				15.75,
				4.605000019073486
			],
			"min":[
				-14.47934341430664,
				-15.606545448303223,
				-8.399999618530273
			],
			"type":"VEC3"
		},
		{
			"bufferView":1,
			"componentType":5126,
			"count":4629,
			"type":"VEC3"
		},
		{
			"bufferView":2,
			"componentType":5123,
			"count":6705,
			"type":"SCALAR"
		},
		{
			"bufferView":3,
			"componentType":5126,
			"count":984,
			"max":[
				12.934706687927246,
				15.184535026550293,
				4.600001811981201
			],
			"min":[
				-13.934706687927246,
				-15.1848783493042,
				4.5999932289123535
			],
			"type":"VEC3"
		},
		{
			"bufferView":4,
			"componentType":5126,
			"count":984,
			"type":"VEC3"
		},
		{
			"bufferView":5,
			"componentType":5123,
			"count":2124,
			"type":"SCALAR"
		},
		{
			"bufferView":6,
			"componentType":5126,
			"count":64,
			"max":[
				5.3001604080200195,
				4.575042247772217,
				-3.17000150680542
			],
			"min":[
				4.700003147125244,
				-4.574967861175537,
				-4.870001316070557
			],
			"type":"VEC3"
		},
		{
			"bufferView":7,
			"componentType":5126,
			"count":64,
			"type":"VEC3"
		},
		{
			"bufferView":8,
			"componentType":5123,
			"count":96,
			"type":"SCALAR"
		},
		{
			"bufferView":9,
			"componentType":5126,
			"count":1059,
			"max":[
				1.7251980304718018,
				15.62530517578125,
				1.9016778469085693
			],
			"min":[
				-10.974802017211914,
				-15.62530517578125,
				-3.17856502532959
			],
			"type":"VEC3"
		},
		{
			"bufferView":10,
			"componentType":5126,
			"count":1059,
			"type":"VEC3"
		},
		{
			"bufferView":11,
			"componentType":5123,
			"count":1608,
			"type":"SCALAR"
		},
		{
			"bufferView":12,
			"componentType":5126,
			"count":1096,
			"max":[
				10.000198364257812,
				12.299959182739258,
				-0.05000000074505806
			],
			"min":[
				-11.000154495239258,
				-12.300318717956543,
				-1.6000045537948608
			],
			"type":"VEC3"
		},
		{
			"bufferView":13,
			"componentType":5126,
			"count":1096,
			"type":"VEC3"
		},
		{
			"bufferView":14,
			"componentType":5123,
			"count":3318,
			"type":"SCALAR"
		},
		{
			"bufferView":15,
			"componentType":5126,
			"count":24802,
			"max":[
				13.500171661376953,
				15.75,
				4.605000019073486
			],
			"min":[
				-14.5,
				-15.75,
				-8.399999618530273
			],
			"type":"VEC3"
		},
		{
			"bufferView":16,
			"componentType":5126,
			"count":24802,
			"type":"VEC3"
		},
		{
			"bufferView":17,
			"componentType":5123,
			"count":30879,
			"type":"SCALAR"
		},
		{
			"bufferView":18,
			"componentType":5126,
			"count":16555,
			"max":[
				12.023444175720215,
				15.75,
				4.605000019073486
			],
			"min":[
				-14.5,
				-14.549616813659668,
				-8.399999618530273
			],
			"type":"VEC3"
		},
		{
			"bufferView":19,
			"componentType":5126,
			"count":16555,
			"type":"VEC3"
		},
		{
			"bufferView":20,
			"componentType":5123,
			"count":21216,
			"type":"SCALAR"
		},
		{
			"bufferView":21,
			"componentType":5126,
			"count":18447,
			"max":[
				13.500171661376953,
				15.75,
				4.605000019073486
			],
			"min":[
				-14.5,
				-15.75,
				-8.399999618530273
			],
			"type":"VEC3"
		},
		{
			"bufferView":22,
			"componentType":5126,
			"count":18447,
			"type":"VEC3"
		},
		{
			"bufferView":23,
			"componentType":5123,
			"count":23721,
			"type":"SCALAR"
		},
		{
			"bufferView":24,
			"componentType":5126,
			"count":18798,
			"max":[
				13.500171661376953,
				15.75,
				4.600001811981201
			],
			"min":[
				-14.500171661376953,
				-15.75034236907959,
				-8.430000305175781
			],
			"type":"VEC3"
		},
		{
			"bufferView":25,
			"componentType":5126,
			"count":18798,
			"type":"VEC3"
		},
		{
			"bufferView":26,
			"componentType":5123,
			"count":24144,
			"type":"SCALAR"
		},
		{
			"bufferView":27,
			"componentType":5126,
			"count":2623,
			"max":[
				7.500194072723389,
				6.625078201293945,
				-1.610001564025879
			],
			"min":[
				3.6499693393707275,
				-6.624984264373779,
				-5.810001373291016
			],
			"type":"VEC3"
		},
		{
			"bufferView":28,
			"componentType":5126,
			"count":2623,
			"type":"VEC3"
		},
		{
			"bufferView":29,
			"componentType":5123,
			"count":4968,
			"type":"SCALAR"
		},
		{
			"bufferView":30,
			"componentType":5126,
			"count":4372,
			"max":[
				12.934706687927246,
				15.184535026550293,
				4.599999904632568
			],
			"min":[
				-14.460880279541016,
				-15.711051940917969,
				-8.430000305175781
			],
			"type":"VEC3"
		},
		{
			"bufferView":31,
			"componentType":5126,
			"count":4372,
			"type":"VEC3"
		},
		{
			"bufferView":32,
			"componentType":5123,
			"count":5025,
			"type":"SCALAR"
		},
		{
			"bufferView":33,
			"componentType":5126,
			"count":583,
			"max":[
				7.400190353393555,
				6.312578201293945,
				-1.610001564025879
			],
			"min":[
				3.6000027656555176,
				-6.312466621398926,
				-5.64000129699707
			],
			"type":"VEC3"
		},
		{
			"bufferView":34,
			"componentType":5126,
			"count":583,
			"type":"VEC3"
		},
		{
			"bufferView":35,
			"componentType":5123,
			"count":1020,
			"type":"SCALAR"
		},
		{
			"bufferView":36,
			"componentType":5126,
			"count":2198,
			"max":[
				10.000198364257812,
				12.299959182739258,
				-0.05000000074505806
			],
			"min":[
				-11.000154495239258,
				-12.300318717956543,
				-1.6000045537948608
			],
			"type":"VEC3"
		},
		{
			"bufferView":37,
			"componentType":5126,
			"count":2198,
			"type":"VEC3"
		},
		{
			"bufferView":38,
			"componentType":5123,
			"count":3258,
			"type":"SCALAR"
		},
		{
			"bufferView":39,
			"componentType":5126,
			"count":21675,
			"max":[
				13.500171661376953,
				15.75,
				4.600000381469727
			],
			"min":[
				-14.500171661376953,
				-15.75034236907959,
				-8.430000305175781
			],
			"type":"VEC3"
		},
		{
			"bufferView":40,
			"componentType":5126,
			"count":21675,
			"type":"VEC3"
		},
		{
			"bufferView":41,
			"componentType":5123,
			"count":26439,
			"type":"SCALAR"
		}
	],
	"bufferViews":[
		{
			"buffer":0,
			"byteLength":55548,
			"byteOffset":0,
			"target":34962
		},
		{
			"buffer":0,
			"byteLength":55548,
			"byteOffset":55548,
			"target":34962
		},
		{
			"buffer":0,
			"byteLength":13410,
			"byteOffset":111096,
			"target":34963
		},
		{
			"buffer":0,
			"byteLength":11808,
			"byteOffset":124508,
			"target":34962
		},
		{
			"buffer":0,
			"byteLength":11808,
			"byteOffset":136316,
			"target":34962
		},
		{
			"buffer":0,
			"byteLength":4248,
			"byteOffset":148124,
			"target":34963
		},
		{
			"buffer":0,
			"byteLength":768,
			"byteOffset":152372,
			"target":34962
		},
		{
			"buffer":0,
			"byteLength":768,
			"byteOffset":153140,
			"target":34962
		},
		{
			"buffer":0,
			"byteLength":192,
			"byteOffset":153908,
			"target":34963
		},
		{
			"buffer":0,
			"byteLength":12708,
			"byteOffset":154100,
			"target":34962
		},
		{
			"buffer":0,
			"byteLength":12708,
			"byteOffset":166808,
			"target":34962
		},
		{
			"buffer":0,
			"byteLength":3216,
			"byteOffset":179516,
			"target":34963
		},
		{
			"buffer":0,
			"byteLength":13152,
			"byteOffset":182732,
			"target":34962
		},
		{
			"buffer":0,
			"byteLength":13152,
			"byteOffset":195884,
			"target":34962
		},
		{
			"buffer":0,
			"byteLength":6636,
			"byteOffset":209036,
			"target":34963
		},
		{
			"buffer":0,
			"byteLength":297624,
			"byteOffset":215672,
			"target":34962
		},
		{
			"buffer":0,
			"byteLength":297624,
			"byteOffset":513296,
			"target":34962
		},
		{
			"buffer":0,
			"byteLength":61758,
			"byteOffset":810920,
			"target":34963
		},
		{
			"buffer":0,
			"byteLength":198660,
			"byteOffset":872680,
			"target":34962
		},
		{
			"buffer":0,
			"byteLength":198660,
			"byteOffset":1071340,
			"target":34962
		},
		{
			"buffer":0,
			"byteLength":42432,
			"byteOffset":1270000,
			"target":34963
		},
		{
			"buffer":0,
			"byteLength":221364,
			"byteOffset":1312432,
			"target":34962
		},
		{
			"buffer":0,
			"byteLength":221364,
			"byteOffset":1533796,
			"target":34962
		},
		{
			"buffer":0,
			"byteLength":47442,
			"byteOffset":1755160,
			"target":34963
		},
		{
			"buffer":0,
			"byteLength":225576,
			"byteOffset":1802604,
			"target":34962
		},
		{
			"buffer":0,
			"byteLength":225576,
			"byteOffset":2028180,
			"target":34962
		},
		{
			"buffer":0,
			"byteLength":48288,
			"byteOffset":2253756,
			"target":34963
		},
		{
			"buffer":0,
			"byteLength":31476,
			"byteOffset":2302044,
			"target":34962
		},
		{
			"buffer":0,
			"byteLength":31476,
			"byteOffset":2333520,
			"target":34962
		},
		{
			"buffer":0,
			"byteLength":9936,
			"byteOffset":2364996,
			"target":34963
		},
		{
			"buffer":0,
			"byteLength":52464,
			"byteOffset":2374932,
			"target":34962
		},
		{
			"buffer":0,
			"byteLength":52464,
			"byteOffset":2427396,
			"target":34962
		},
		{
			"buffer":0,
			"byteLength":10050,
			"byteOffset":2479860,
			"target":34963
		},
		{
			"buffer":0,
			"byteLength":6996,
			"byteOffset":2489912,
			"target":34962
		},
		{
			"buffer":0,
			"byteLength":6996,
			"byteOffset":2496908,
			"target":34962
		},
		{
			"buffer":0,
			"byteLength":2040,
			"byteOffset":2503904,
			"target":34963
		},
		{
			"buffer":0,
			"byteLength":26376,
			"byteOffset":2505944,
			"target":34962
		},
		{
			"buffer":0,
			"byteLength":26376,
			"byteOffset":2532320,
			"target":34962
		},
		{
			"buffer":0,
			"byteLength":6516,
			"byteOffset":2558696,
			"target":34963
		},
		{
			"buffer":0,
			"byteLength":260100,
			"byteOffset":2565212,
			"target":34962
		},
		{
			"buffer":0,
			"byteLength":260100,
			"byteOffset":2825312,
			"target":34962
		},
		{
			"buffer":0,
			"byteLength":52878,
			"byteOffset":3085412,
			"target":34963
		}
	],
	"buffers":[
		{
			"byteLength":3138292,
			"uri":"centraleInertielle.bin"
		}
	]
}
